<svg xmlns="http://www.w3.org/2000/svg" width="58" height="32" viewBox="0 0 58 32">
    <path fill="#0FF4FF" fill-rule="nonzero" d="M16.224 32c3.105 0 5.416-.473 6.935-1.418 1.52-.946 2.279-2.099 2.279-3.46 0-.862-.159-1.617-.476-2.264a4.947 4.947 0 0 0-1.327-1.667c-.868.465-1.778.88-2.73 1.244-.95.365-2.11.548-3.48.548-2.57 0-4.614-.78-6.133-2.34-1.52-1.559-2.279-3.781-2.279-6.668 0-2.853.685-5.06 2.053-6.619 1.369-1.56 3.339-2.339 5.91-2.339 1.301 0 2.444.2 3.43.597.984.398 1.91.88 2.778 1.444.568-.365 1.069-.863 1.502-1.493.434-.63.651-1.377.651-2.24 0-1.56-.842-2.837-2.528-3.832C21.123.498 18.744 0 15.673 0c-2.17 0-4.206.348-6.109 1.045a14.131 14.131 0 0 0-4.982 3.086C3.163 5.49 2.045 7.158 1.227 9.132.409 11.106 0 13.387 0 15.975c0 2.787.426 5.184 1.277 7.191.851 2.008 2.011 3.667 3.48 4.977 1.469 1.31 3.188 2.281 5.158 2.911 1.97.63 4.072.946 6.309.946zm32.562 0c3.105 0 5.417-.473 6.936-1.418C57.24 29.636 58 28.483 58 27.122c0-.862-.159-1.617-.476-2.264a4.947 4.947 0 0 0-1.327-1.667c-.868.465-1.777.88-2.729 1.244-.951.365-2.111.548-3.48.548-2.57 0-4.615-.78-6.134-2.34-1.519-1.559-2.278-3.781-2.278-6.668 0-2.853.684-5.06 2.053-6.619 1.368-1.56 3.338-2.339 5.908-2.339 1.302 0 2.446.2 3.43.597.985.398 1.912.88 2.78 1.444.567-.365 1.068-.863 1.502-1.493.434-.63.65-1.377.65-2.24 0-1.56-.842-2.837-2.528-3.832C53.685.498 51.307 0 48.236 0c-2.17 0-4.207.348-6.11 1.045a14.131 14.131 0 0 0-4.982 3.086c-1.419 1.36-2.537 3.027-3.355 5.001-.818 1.974-1.227 4.255-1.227 6.843 0 2.787.426 5.184 1.277 7.191.852 2.008 2.012 3.667 3.48 4.977 1.47 1.31 3.188 2.281 5.158 2.911 1.97.63 4.073.946 6.31.946z"/>
</svg>
