<svg xmlns="http://www.w3.org/2000/svg" width="100" height="100" viewBox="0 0 100 100">
    <g fill="none" fill-rule="evenodd">
        <circle cx="50" cy="50" r="49.5" fill="#050D16" stroke="#5D5D5D"/>
        <circle cx="50" cy="50" r="29.5" fill="#050D16" stroke="#5D5D5D"/>
        <path fill="#0FF4FF" d="M50 100V0c27.614 0 50 22.386 50 50s-22.386 50-50 50z"/>
        <path fill="#FFF" d="M50 80V20c-16.569 0-30 13.431-30 30 0 16.569 13.431 30 30 30z"/>
        <path fill="#050D16" d="M63.248 51.273l-12.8 7.5A1.68 1.68 0 0 1 49.6 59a1.68 1.68 0 0 1-.776-.189c-.508-.264-.824-.766-.824-1.311v-15c0-.546.316-1.048.824-1.312a1.688 1.688 0 0 1 1.624.04l12.8 7.5c.468.274.752.755.752 1.272s-.284.997-.752 1.272z"/>
    </g>
</svg>
